<?xml version="1.0" encoding="UTF-8"?>
<svg width="560.87mm" height="334.86mm" version="1.1" viewBox="0 0 1590.1 949.32" xmlns="http://www.w3.org/2000/svg" xmlns:cc="http://creativecommons.org/ns#" xmlns:dc="http://purl.org/dc/elements/1.1/" xmlns:rdf="http://www.w3.org/1999/02/22-rdf-syntax-ns#">
 <metadata>
  <rdf:RDF>
   <cc:Work rdf:about="">
    <dc:format>image/svg+xml</dc:format>
    <dc:type rdf:resource="http://purl.org/dc/dcmitype/StillImage"/>
    <dc:title/>
   </cc:Work>
  </rdf:RDF>
 </metadata>
 <g fill="#fff">
  <path id="Auswahl" d="m644.5 1.0958c2.27-0.46 3.64-0.73 6-0.53 21.51 1.81 18.75 33.62-3 31.78-16.07-1.35-22.32-23.95-3-31.25zm-287 93.67c2.22-0.14 3.72-0.37 6 0 25.27 1.54 22.86 39.39-3 37.59-20.45-1.42-25.88-30.53-3-37.59zm225 9.9h15c14.43-0.14 32.96 4.42 46 10.57 25.15 11.88 44.44 29.61 57.69 54.22 23.64 43.89 17.68 103.73-15.86 141-12.28 13.64-22.48 21.64-38.83 29.75-19.12 9.49-36.85 12.49-58 12.25-9.72-0.12-24.78-3.15-34-6.34-66.7-23.08-99.72-97.29-74.94-162.66 13.58-35.8 44-64.15 80.94-74.57 7.24-2.05 14.59-2.93 22-4.22zm348 136.23c13.68-1.75 27.99 1.56 39 10.09 24.18 18.71 26.71 55.29 5.91 77.47-5.07 5.4-10.1 8.88-16.91 11.77-7.86 3.33-13.52 4.32-22 4.23-34.13-0.39-57.53-34.91-47.96-67 6.04-20.24 21.59-32.75 41.96-36.56zm-643 30.8h5c6.59-0.38 10.83 0.48 17 2.82 37.74 14.37 37.02 73.81-1 87.39-5.38 1.93-10.31 2.67-16 2.54-30.73-0.71-48.4-33.36-39.96-60.99 5.36-17.55 17.36-27.63 34.96-31.76zm392 172.76c-10.95-25.75 4.42-50.64 24-66.92 7.21-5.99 11.88-9.28 20-13.93 19.33-11.05 37.81-17.94 60-20.31 4.79-0.52 6.89-1.1 12-0.75 12.39 0.84 23.43 4.68 34 11.11 7.92 4.82 14.65 11.63 19.1 19.8 7.43 13.65 9.89 31.77 7.46 47-3.09 19.44-19.34 49.01-30.85 65-5.35 7.43-11.25 14.51-17.71 21-8.72 8.76-13 13.09-23 20.63-10.74 8.1-21.95 15.58-34 21.61-3.88 1.94-13.76 5.18-15.19 8.97-1.69 3.4-0.06 12.76 0 16.79 1.19 14.47 7.21 39.05 11.86 53 12.43 37.34 26.18 71.1 60.33 94 9.66 6.48 18.74 11.13 30 14.26 11.22 3.11 17.63 2.87 29 2.74 14.6-0.17 20.2-5.64 32-9 3.86 13.73-8.4 28.49-19 35.64-10.78 7.28-22.26 10.16-35 11.52-3.1 0.34-4.73 0.89-8 0.66-14.94-1.07-29.27-6.3-42-14.02-16.57-10.06-29.92-25.39-41.37-40.8-20.41-27.48-34.73-64.91-43-98-4.08-16.33-8.62-42.37-8.63-59-2.19 0.03-4.84-0.13-6.79 1.02-4.66 2.75-9.6 20.38-11.21 25.98l-15.87 64-5.46 18c-0.68 2.02-1.81 5.99-3.37 7.38-4.51 4.02-8.05-4.2-9.08-7.38-2.62-8.04-4.12-24.4-4.22-33-0.28-24.43 2.17-59.6 12-82-6.39-2.23-22.97-8.2-21.46-16.96 0.68-3.97 5.08-5.59 8.46-6.6 6.68-2.01 19.88-1.59 23.79-7.55l11.07-24.89c7.13-16.03 17.9-38.32 27.09-53 6.12-9.77 13.68-20.35 23.05-27.24 11.78-8.66 24.05-7.87 33.07 4.25 2.81 3.77 5.81 9.18 3.91 13.95-2.21 5.54-12.21 9.87-16.94 13.72-4.89 3.97-10.83 13.61-13.78 19.32l-19.26 41c10.33-2.43 21.24-10.38 30-16.34 21.33-14.52 53.16-45.61 67.96-66.66 6-8.52 11.6-16.98 14.5-27 1.55-4.4 2.49-9.85 0-13.96-7.91-11.78-30.02-12.18-42.46-12.04-28.07 0.33-62.32 21.09-83 38.87-8.96 7.7-16.74 15.35-22 26.13h-2zm-593 102c-0.07 2.63-0.01 4.5-1.09 7-2.83 6.59-18.97 22.16-24.78 29-15.65 18.43-29.52 45.8-36.41 69-2.55 8.59-5.55 23.55-2.11 32 8.03 19.72 29.27 2.97 39.39-5.26l7-5.91c19.95-18.02 47.15-52.69 59.25-76.83 5.06-10.1 11.69-23.46 11.67-35-0.02-13.05-9.6-22.99-19.92-29.56-18.4-11.72-49.98-18.07-64-31.48-12.05-11.52-16.97-28.59-17-44.96-0.05-33.73 13.59-58.18 39-80 10.52-9.03 27.73-19.82 42-20h4c23.53 0.11 32.85 16.93 34.83 38 1.58 16.74-8.92 43.72-17.43 58-5.26 8.81-18.95 29.16-31.25 25.68-3.48-0.98-2.88-3.94-2.05-6.68l6.09-16s14.53-42 14.53-42c3.05-10.18 6.25-20.28 6.28-31-7.93 0.44-14.58 4.98-21 9.34-13.16 8.95-27.76 21.42-36.64 34.66-5.18 7.73-9.4 16.84-5.48 26 5.59 13.08 22.53 23.6 34.12 31.33 17.48 11.66 34.39 23.99 46.25 41.67 35.35 52.68 1.44 122.8-36.08 164-11.74 12.88-26.88 24.97-43.17 31.55-5.3 2.14-12.3 3.74-18 4.28-4.53 0.43-10.6-0.41-15-1.59-32.05-8.59-39.34-41.28-39-70.24 0.39-32.84 19.01-69.1 45-88.87 12.11-9.21 25.48-15.99 41-16.13zm130-75h-12l-18-1c-8.19-0.01-21.98-1.79-28.98-6.07-7.02-4.29-10.14-16.24-3.63-22.36 3.16-2.98 8.44-3.71 12.61-3.48l33 2.91c5.07 0.06 16.87 0.71 20.86-1.93 4-2.66 5.35-12.43 6.51-17.07l10.63-40c1-3.49 2.86-12.21 5.43-14.4 7.63-6.51 22.01 7.65 24.58 14.4 3.8 9.99-2.73 28.99-5.58 39l-4.43 18h24 51c2.52 0.01 13.09-0.15 10.83 4.85-1.45 3.23-13.23 7.5-16.83 8.95-17.02 6.86-34.91 12.15-53 15.28-4.4 0.76-19.82 2.39-22.16 5.23-2.2 2.67-5.18 16.55-6.21 20.69l-12 48-25.84 113c-3.8 17.9-11.74 55.97-12.7 73-0.21 3.68 0.92 13.32 6.01 13.26 2.7-0.03 6.88-3.6 8.73-5.43 8.25-8.14 18.17-23.71 24.36-33.83 15.07-24.65 27.84-50.37 41.07-76l9.9-16 6.26-18c3.93-10.39 13.11-28.54 20.04-37 11.8-14.4 35.81-28.75 51.33-10.98 2.08 2.38 3.61 5.03 4.74 7.98 1.64 4.26 1.52 7.55 1.47 12-0.05 3.77-1.68 16.36-6.88 16.39-2.53 0.02-3.22-3.53-3.75-5.39-1.31-4.7-3.84-13.08-10.37-11.78-7.3 1.45-16.12 15.63-19.94 21.78-8.74 14.08-16 30.45-21.74 46-3.49 9.45-7.27 19.84-7.32 30v4c13.95-10.56 27.69-37.32 36.58-53 2.28-4.03 7.85-15.09 10.63-17.77 5.87-5.67 13.72-3.36 18.14 2.79 4.51 6.25 4.8 14.77 2.9 21.98-3.29 12.43-11.1 26.31-11.14 39v8c2.9 15.22 18.38-1.09 22.59-6 11.28-13.16 22.93-34.14 32.64-49 3.97-6.07 8.38-15.34 16.66-14l3.25-22c0.56-3.36 1.25-9.13 2.89-11.96 3.75-6.47 14-6.96 17.16 0 5.25 11.58-3.18 35.79-2.3 44.96 2.5-6.82 14.67-28.25 18.95-35 5.59-8.8 9.63-14.55 17.05-22 4.63-4.65 8.91-9.35 15-12.1 2.93-1.32 8.81-2.83 12-2.63 14.24 0.91 18.98 22.37 19 33.73v8c-0.19 13.96-13.85 30.81-12.98 51 0.49 10.74 13.21 21.36 0 23.87h-5.02c-12.68-0.46-16.13-11.2-18.33-21.87-4.69-22.64 2.57-44.35 11.33-65-11.76 8.42-20.83 21.72-28.2 34-12.47 20.78-22.55 42.94-32.5 65l-13.05 28c-1.42 2.84-4.33 9.48-6.64 11.26-1.66 1.28-3.6 1.63-5.59 0.96-6.03-2.01-6.12-9-6.01-14.22 0.13-5.73 1.93-12.21 2.91-18l5.36-35c0.85-6.49 3.2-15.78 1.72-22-1.15 7.34-6.07 18.07-9.23 25-8.68 19.01-20.11 38.21-36.77 51.33-5.76 4.54-13.51 9.86-21 10.48-15.79 1.31-24.13-15.59-26-28.81l-13 11.47c-7.15 5.5-17.45 8.66-26 4.61-2.36-1.11-4.07-2.39-5.96-4.18-2.35-2.23-4.59-5.04-6.13-7.9-3.2-5.95-2.21-10.04-3.91-16-11.71 27.61-32.8 69.03-55 88.83-11.6 10.34-36.61 19.83-47.01 3.17-6.08-9.74-5.12-26.73-4.99-38 0.26-22.18 9.61-61.38 14.58-84l15.84-77s12.58-60 12.58-60l5-24zm1094 0h-12l-18-1c-8.19-0.01-21.98-1.79-28.98-6.07-7.02-4.29-10.14-16.24-3.63-22.36 3.16-2.98 8.44-3.71 12.61-3.48l33 2.91c5.07 0.06 16.87 0.71 20.86-1.93 4-2.66 5.35-12.43 6.51-17.07l10.63-40c1-3.49 2.86-12.21 5.43-14.4 7.63-6.51 22.01 7.65 24.58 14.4 3.8 9.99-2.73 28.99-5.58 39l-4.43 18h24 51c2.52 0.01 13.09-0.15 10.83 4.85-1.45 3.23-13.23 7.5-16.83 8.95-17.02 6.86-34.91 12.15-53 15.28-4.4 0.76-19.82 2.39-22.16 5.23-2.2 2.67-5.18 16.55-6.21 20.69l-12 48-25.84 113c-3.8 17.9-11.74 55.97-12.7 73-0.21 3.68 0.92 13.32 6.01 13.26 2.7-0.03 6.88-3.6 8.73-5.43 8.21-8.1 17.56-22.84 23.75-32.83 13.76-22.23 25.98-45.63 37.67-69l12.12-22 5.37-19c3.47-10.71 8.73-21.94 15.42-31 8.69-11.79 30.25-27.58 42.2-11 1.52 2.1 2.65 4.54 3.42 7 1.18 3.77 1.29 7.09 1.21 11-0.38 16.62-6.17 30.29-16.6 43-10.9 13.27-27.9 28.9-29.21 47-0.48 6.61 3.15 14.79 10.82 14.71 3.05-0.03 8.3-2.15 11-3.61 16.58-8.97 27.41-25.59 38.79-40.1 0 0 18.96-24.98 18.96-24.98 3.86-4.9 6.2-4.94 7.69-8.15l6.7-33.83c3.3-5.7 11.48-6.54 15.43-2.61 2.93 2.91 3.42 9.61 3.42 13.57l-3.99 34c2.5-6.82 14.67-28.25 18.95-35 4.81-7.58 9.94-15.09 16.34-21.42 3.72-3.69 8.28-8.43 12.71-11.1 17.15-10.34 27.95-0.66 32.37 16.52 2.12 8.25 1.67 11.68 1.63 20-0.08 15.65-13.86 31.57-12.98 52 0.49 10.74 13.21 21.36 0 23.87h-5.02c-12.68-0.46-16.13-11.2-18.33-21.87-4.69-22.64 2.57-44.35 11.33-65-11.76 8.42-20.83 21.72-28.2 34-12.47 20.78-22.55 42.94-32.5 65l-13.05 28c-1.42 2.84-4.33 9.48-6.64 11.26-1.66 1.28-3.6 1.63-5.59 0.96-6.03-2.01-6.12-9-6.01-14.22l8.04-51c0.63-5.65 2.41-11.42 0.95-17-2.02 6.92-8.87 16.81-13 23l-9.34 14-8.11 11c-13.66 17.11-33.45 38.37-57.55 28.53-3.23-1.32-6.38-3.3-8.91-5.71-6.66-6.35-10.02-16.83-10.92-25.82-0.55-5.47 0.49-7.15-1.17-13-11.61 29.02-34.94 75.26-58 95.83-11.6 10.34-36.61 19.83-47.01 3.17-6.08-9.74-5.12-26.73-4.99-38 0.26-22.18 9.61-61.38 14.58-84l15.84-77s12.58-60 12.58-60l5-24zm-759-38.75c2.63-0.15 4.32-0.32 7 0 29.3 0.97 37.65 41.12 10 53.4-4.28 1.91-8.34 2.5-13 2.31-23.82-0.96-35.54-29.2-19.67-46.87 4.14-4.61 9.74-7.21 15.67-8.84zm572 53.33c8.29-1.04 12.34 4.94 13.56 12.42 1.85 11.38-3.14 23.15-8.34 33-1.45 2.74-5.46 10.45-8.42 11.29-2.28 0.66-3.6-1.66-4.47-3.34-1.71-3.27-3.38-9.27-4.07-12.95-2.39-12.76-2.75-34.82 11.74-40.42zm-17 201.42c10.88-11.12 35.14-48.21 45-63l14.34-22c1.78-2.71 6-8.38 6.94-11l2.33-20c2.49-14.01 9.7-29.71 18.29-41 3.51-4.62 9.6-11.07 15.1-13.16 6.82-2.59 21.48 3.5 24.11 10.18 1.44 3.66 0.84 16.31 0.89 20.98 0.07 5.71 1.67 17.24 2.8 23 1.27 6.43 3.24 12.37 3.19 19-0.01 2.35 0.03 5.57-2.3 6.93-4.71 2.76-10.79-4.46-12.81-7.93-4.55-7.81-10.56-32.61-11.88-42-7.25 2.87-10.79 8.9-13.3 16-6.35 17.92-0.58 25.2 8.49 40l10.16 15.76c3.44 3.74 8.13-0.6 11.65-2.61 9.63-5.49 22.64-12.1 33-15.9 3.74-1.4 13.16-4.73 15.59 0 2.65 5.21-5.12 12.1-8.59 14.95l-26 18.93c-2.33 1.77-8.93 6.79-10.23 9.04-2.08 3.58 2.55 16.24 3.43 20.83 2.51 13.11 1.6 25.08-1.57 38l-5.49 20c-4.69 13.19-18.02 38.33-28.23 47.56-3.16 2.86-6.96 5.72-10.91 7.35-4.06 1.66-6.67 2.04-11 2.09-12.48 0.13-16.67-2.87-22.24-14-6.78-13.55-5.93-22.44-5.76-37 0.24-19.94 12.33-43.82 23.34-60l12.08-16c1.7-2.07 4.85-5.39 5.34-8 0.58-3.1-3.07-9.11-4.51-12-6.1-12.19-7.49-15.29-12.25-28-2.74 13.56-12.33 30.71-19.14 43l-25.86 45c-6.81 10.17-13.79 22.29-28 20.89-8.79-0.87-15.4-13.17-17.51-20.89-2.05-7.5-1.49-15.31-1.49-23 0-15.47 1.26-30.75 4-46 0 0-24.25 31-24.25 31-6.54 7.92-18.48 20.98-22.29 30-3.89 9.23-5.43 20.18-7.46 30l-8.21 38c-9.61 45.19-21.43 99.75-42.04 141-8.16 16.34-14.07 28.29-26.84 42-3.05 3.27-9.99 10.23-13.91 12.02-8.11 3.7-17.44-0.77-22.67-7.02-8.87-10.61-11.48-29.51-11.33-43 0.27-23.14 8.04-49.37 15.95-71 13.44-36.76 30.69-69.46 52.38-102l28.02-38 14.84-19c3.67-6.51 5.06-21.68 3.81-29l-11.04 12-9.96 9.27c-15.88 13.61-45.97 33.77-61.87 8.73-8.73-13.75-4.28-27.96-7.13-38-2.26 7.16-8.74 15.62-13 22-10.78 16.17-26.3 37.9-44 46.63-12.3 6.06-28.47 3.95-37.67-6.67-6.18-7.12-9.22-18.66-9.33-27.96v-23c0.04-23 9.52-58.15 22.72-77 3.02-4.31 6.21-8.3 10.28-11.67 9.54-7.91 24.7-13.34 33.36-1.33 1.52 2.1 2.65 4.54 3.42 7 1.18 3.77 1.29 7.09 1.21 11-0.38 16.62-6.17 30.29-16.6 43-10.9 13.27-27.9 28.9-29.21 47-0.14 2.01-0.01 4.06 0.54 6 5.26 18.43 27.59 2.37 35.28-5.04 8.68-8.36 27.58-33.27 35.63-43.96l8.88-11.95 6.86-6.31 7.73-13.74c6.08-9.13 14.51-14.34 24.9-17.25 12.62-3.54 27.79-0.72 37.9 7.93 3.52 3.01 9.69 14.3 4.56 18.15-3.76 2.81-16-1.1-21.46-0.64-24.93 2.07-36.77 38.66-34 59.81 6.34-1.57 11-6.56 15.42-11.17 10.36-10.79 26.06-29.75 38.58-36.34 5.23-2.75 16.64-6.54 21.26-1.06 2.52 2.98 2.73 11.68 2.74 15.57v9l1 18c10.62-10.62 22.28-20.22 34-29.6 3.88-3.11 14.52-10.47 16.3-14.44l8.37-32.96c1.36-4.1 3.23-9.76 8.33-10.24 4.15-0.39 7.62 3.17 9.78 6.26 3.99 5.68 6.81 17.03 7.12 23.98 0.23 5.22-2.94 19.19-4.1 25l-8.22 40c-2.19 9.88-5.49 23.08-5.58 33zm-223-118c-10.74 6.27-16.96 15.6-18 28 8.2-5.92 16.41-17.87 18-28zm544 0c-10.74 6.27-16.96 15.6-18 28 8.2-5.92 16.41-17.87 18-28zm-562 28h-1l1 1v-1zm544 0h-1l1 1v-1zm-202 72h-2c-14.08 22.5-32 46.24-32 74 7.88-4.61 12.45-11.47 17.31-19 7.88-12.23 16.51-30.23 16.69-45v-10zm-204 52c-4.83 4.48-8.5 11.41-12.05 17l-17.35 27c-20.74 34.57-39.28 73.57-44.31 114l-1.28 17 0.99 13c6.17-2.93 8.73-7.36 12.19-13 5.91-9.64 11.37-21.49 15.61-32 0 0 30.87-87 30.87-87 3.93-11.81 14.4-44.99 15.33-56z" stroke="#000"/>
  <g stroke-width="3.1624">
   <path transform="matrix(.75009 0 0 .75009 -.0031114 0)" d="m44.674 956.31c-23.279-12.715-33.966-29.634-39.771-62.966-11.434-65.661 38.631-148.4 97.485-161.1 6.221-1.3428 10.278-0.97051 10.278 0.94308 0 1.7388-11.405 16.439-25.344 32.666-52.645 61.288-78.091 141.58-49.888 157.41 7.3309 4.1147 9.5972 3.9524 21.939-1.5714 30.586-13.69 86.696-77.031 112.28-126.75 14.396-27.976 18.782-43.883 15.599-56.566-3.2011-12.754-22.136-31.228-40.38-39.398-65.496-29.328-68.447-31.001-78.048-44.254-19.245-26.567-19.846-68.765-1.5114-106.21 19.6-40.028 70.286-76.789 101.09-73.317 24.929 2.8098 39.139 22.514 39.139 54.271 0 39.784-35.411 103.02-57.689 103.02-4.6857 0-5.6791-1.3764-3.9944-5.5343 8.976-22.153 33.077-96.601 34.809-107.52 2.0122-12.692 1.7054-13.44-5.511-13.44-17.194 0-70.731 45.606-80.233 68.346-10.326 24.714-1.7098 37.781 48.261 73.191 57.749 40.921 74.95 68.276 75.058 119.36 0.0703 33.292-7.8779 59.335-30.211 98.99-16.894 29.996-60.352 74.853-83.269 85.947-19.975 9.6706-46.904 11.677-60.086 4.4771z"/>
   <path transform="matrix(.75009 0 0 .75009 -.0031114 0)" d="m241.24 1011.6c-14.711-8.5514-18.452-42.062-10.19-91.291 2.4811-14.784 16.707-85.117 31.612-156.29 14.906-71.177 27.101-131.3 27.101-133.61 0-3.0512-5.503-4.1996-20.124-4.1996-26.486 0-52.314-5.0755-59.661-11.724-3.8705-3.5028-5.582-8.6734-4.9635-14.995l0.94406-9.6489h43.289c27.474 0 44.584-1.2821 46.835-3.5093 1.9501-1.9301 8.569-22.565 14.709-45.855 13.1-49.693 16.122-54.43 28.746-45.054 17.687 13.136 18.866 19.162 10.544 53.867-4.0968 17.085-8.1119 32.843-8.9223 35.017-1.1448 3.0711 11.301 3.953 55.789 3.953 31.524 0 57.262 1.2703 57.262 2.8261 0 6.1972-57.833 25.587-95.821 32.126-16.012 2.7561-22.59 5.4291-25.756 10.465-4.3981 6.9966-22.633 80.377-47.259 190.18-33.539 149.55-35.085 174.94-9.9497 163.49 9.9851-4.5495 42.988-55.143 73.64-112.89 13.848-26.09 27.539-51.706 30.423-56.924 2.884-5.218 8.1155-17.522 11.626-27.342 19.803-55.403 63.523-87.95 86.831-64.641 9.3358 9.3358 12.413 20.493 9.6769 35.08-2.5639 13.667-5.1737 13.829-11.273 0.70138-7.0448-15.162-15.917-14.787-29.647 1.2532-12.362 14.442-35.933 60.622-44.51 87.202-2.9179 9.0427-4.8593 21.851-4.3141 28.462l0.99113 12.021 11.091-11.858c6.0999-6.5218 19.619-26.895 30.043-45.274 10.424-18.379 21.526-35.752 24.672-38.608 7.0307-6.3826 14.376-2.715 20.797 10.384 3.9379 8.0338 3.5117 11.668-4.2315 36.076-10.768 33.945-10.419 55.046 0.93751 56.654 10.391 1.4712 28.873-18.727 54.258-59.296 11.306-18.069 23.402-34.413 26.881-36.32 9.2032-5.0462 10.124-7.082 12.433-27.496 2.7195-24.037 11.805-34.214 20.833-23.335 2.9438 3.547 3.4328 12.302 1.8548 33.206-1.1787 15.614-1.5524 28.388-0.83039 28.388 0.72195 0 8.2443-12.452 16.716-27.671 25.091-45.073 58.274-74.403 73.608-65.059 17.08 10.409 20.704 46.033 8.2072 80.677-8.6703 24.036-9.7681 37.392-4.3507 52.933 4.356 12.496 0.40643 17.724-11.19 14.814-12.445-3.1234-18.463-15.366-20.088-40.86-1.1962-18.77 0.0127-27.089 6.9276-47.66 4.6072-13.706 7.8304-25.467 7.1626-26.134-2.8341-2.8341-19.107 13.513-31.245 31.388-7.1996 10.602-27.774 49.605-45.72 86.673-17.947 37.068-34.112 67.397-35.924 67.397-8.457 0-8.8113-15.866-1.3492-60.433 8.1351-48.587 9.1205-59.739 5.2788-59.739-1.3311 0-5.0236 7.4712-8.2057 16.603-20.024 57.464-68.307 108.69-92.191 97.803-8.6788-3.9543-20.488-21.122-20.507-29.811-0.0161-7.5233-7.2184-6.9712-14.536 1.1144-8.1237 8.9766-21.333 15.488-31.418 15.488-10.387 0-26.777-15.782-26.843-25.847-0.11717-17.806-5.3507-14.286-18.579 12.497-19.618 39.719-34.471 63.383-50.746 80.851-22.26 23.89-45.622 32.946-61.373 23.79z"/>
   <path transform="matrix(.75009 0 0 .75009 -.0031114 0)" d="m370.4 478.08c-21.68-10.254-33.206-29.663-33.206-55.918 0-60.335 77.934-79.666 103.12-25.578 4.1271 8.8634 7.5039 21.096 7.5039 27.184 0 17.279-13.143 42.147-26.706 50.529-15.958 9.8625-34.876 11.274-50.712 3.7837z"/>
   <path transform="matrix(.75009 0 0 .75009 -.0031114 0)" d="m466.86 167.61c-8.8623-8.8623-8.4846-26.59 0.70366-33.026 9.5225-6.6698 25.588-6.2381 32.012 0.8603 12.656 13.985 1.894 38.491-16.903 38.491-5.2707 0-12.298-2.811-15.812-6.3249z"/>
   <path transform="matrix(.75009 0 0 .75009 -.0031114 0)" d="m759.42 464.33c-57.52-10.969-112.25-66.001-124.62-125.31-11.5-55.145 5.217-110.54 45.523-150.85 30.611-30.615 67.019-45.66 110.69-45.739 43.393-0.078 80.513 15.569 112.27 47.322 32.144 32.144 47.328 68.653 47.399 113.97 0.16255 103.32-90.858 179.75-191.26 160.6z"/>
   <path transform="matrix(.75009 0 0 .75009 -.0031114 0)" d="m853.2 36.067c-10.23-7.1657-8.3928-23.059 3.4271-29.641 7.8093-4.3482 9.584-4.3481 17.393 0.0011 11.166 6.2187 13.081 19.234 4.1446 28.171-7.822 7.822-15.269 8.2603-24.965 1.469z"/>
   <path transform="matrix(.75009 0 0 .75009 -.0031114 0)" d="m1237.9 455.27c-39.757-6.7684-64.352-55.496-47.14-93.392 10.138-22.321 37.199-39.361 62.373-39.276 17.251 0.0584 41.458 14.194 51.545 30.098 21.743 34.286 13.718 68.893-22.206 95.753-7.3681 5.5092-31.011 9.1247-44.572 6.816z"/>
   <path transform="matrix(.75009 0 0 .75009 -.0031114 0)" d="m1089.9 1028.4c-56.757-18.814-103.36-78.29-132.41-168.99-9.7321-30.382-19.356-78.287-19.374-96.439-8e-3 -8.6326-1.182-10.278-7.3305-10.278-10.055 0-15.493 12.528-29.19 67.249-15.378 61.436-23.335 87.71-26.562 87.71-4.6004 0-9.4753-18.485-11.558-43.825-2.2121-26.918 2.6198-75.133 10.177-101.55 3.2539-11.375 3.8178-17.673 1.6471-18.397-8.4422-2.8141-24.16-15.626-24.16-19.694 0-2.9082 7.1339-6.4021 19.873-9.7331 10.93-2.858 20.322-5.7406 20.871-6.4057 0.54877-0.66518 8.4315-17.783 17.517-38.04 32.46-72.369 60.84-110.22 82.639-110.22 10.354 0 28.289 14.501 28.289 22.872 0 2.4111-7.7486 11.073-17.219 19.25-14.191 12.251-20.031 20.738-33.206 48.254-8.7925 18.364-15.986 34.811-15.986 36.549 0 5.6455 13.654-0.54325 39.915-18.091 35.015-23.398 91.701-82.106 105.03-108.77 16.933-33.886 11.715-47.234-21.133-54.053-33.151-6.8821-69.628 2.1082-109.58 27.006-23.817 14.844-58.471 46.294-58.556 53.142-0.0312 2.5021-1.1403 2.1968-3.114-0.85738-5.2476-8.1201-3.4169-26.207 4.3214-42.693 19.794-42.169 89.432-81.735 144.31-81.992 19.697-0.0923 26.447 1.3186 39.815 8.3224 20.929 10.965 34.625 26.892 40.691 47.318 6.7562 22.75 6.0252 38.538-2.9639 64.014-21.17 59.995-72.29 117.6-130.7 147.28-26.731 13.584-26.903 13.919-22.73 44.4 6.2514 45.658 23.402 97.572 44.984 136.16 32.8 58.652 101.4 91.649 154.46 74.295 8.9614-2.9311 17.04-4.5832 17.952-3.6712 3.2204 3.2205-6.2221 20.485-17.217 31.481-20.261 20.261-59.519 28.327-89.498 18.389z"/>
   <path transform="matrix(.75009 0 0 .75009 -.0031114 0)" d="m720.2 640.2c-19.019-16.004-15.193-46.522 7.1694-57.186 23.396-11.157 49.404 5.1912 49.404 31.055 0 10.253-2.0876 14.811-10.752 23.476-13.9 13.9-31.262 14.906-45.821 2.6556z"/>
   <path transform="matrix(.75009 0 0 .75009 -.0031114 0)" d="m1230.7 1254.3c-8.901-8.9011-17.485-35.625-17.485-54.436 0-34.995 15.984-89.272 43.217-146.76 21.528-45.442 38.803-73.479 75.017-121.75 15.658-20.872 30.264-42.93 32.458-49.018 4.1858-11.613 5.5341-29.303 2.4671-32.37-0.99-0.99005-10.883 7.1499-21.985 18.089-20.633 20.331-47.49 36.418-60.797 36.418-21.261 0-35.59-20.398-35.59-50.663 0-8.6615-1.4231-15.748-3.1625-15.748-1.7393 0-3.1624 1.2576-3.1624 2.7947 0 3.5401-25.956 41.784-40.864 60.209-24.769 30.613-55.976 40.45-75.692 23.86-14.188-11.939-17.244-25.251-15.493-67.493 2.8409-68.52 28.276-120.36 63.107-128.63 6.6004-1.5669 10.368-0.19683 16.603 6.0384 6.6261 6.6261 8.0597 11.053 8.0343 24.812-0.039 21.277-9.7599 42.161-31.326 67.304-27.127 31.624-35.733 57.553-22.946 69.125 15.33 13.873 38.837-2.1835 80.304-54.852 17.118-21.742 35.884-46.757 41.704-55.589 17.031-25.847 43.982-35.245 69.151-24.112 14.892 6.5873 23.063 16.696 19.983 24.721-1.3573 3.537-5.2861 4.1747-16.846 2.7346-20.605-2.5667-33.956 5.1239-46.046 26.524-10.288 18.21-16.26 57.345-8.751 57.345 2.111 0 19.175-14.784 37.92-32.853 50.576-48.752 63.468-49.022 63.468-1.3296 0 13.582 0.8228 24.695 1.8284 24.695 1.0057 0 17.227-12.844 36.047-28.542l34.218-28.542 5.4986-22.848c3.0242-12.566 6.7765-25.338 8.3384-28.382 6.3052-12.288 18.794-2.7662 24.503 18.681 3.0481 11.451 1.8637 21.035-9.1849 74.317-6.9764 33.644-12.629 64.017-12.561 67.495 0.1948 9.9799 17.705-11.643 57.407-70.89 32.293-48.19 34.996-53.409 37.673-72.736 3.3272-24.024 17.784-55.859 31.675-69.749 11.211-11.211 23.77-12.486 34.824-3.5348 6.4579 5.2293 7.7373 9.7988 9.5181 33.996 1.1316 15.375 3.1109 35.426 4.3986 44.558 1.9448 13.791 1.525 16.603-2.4791 16.603-7.3505 0-14.135-12.708-21.215-39.737-3.5319-13.484-7.1497-25.245-8.0397-26.135-0.8899-0.8899-5.1861 1.7341-9.5471 5.831-9.4177 8.8475-15.501 28.944-12.819 42.351 2.6568 13.284 26.817 52.477 32.349 52.477 2.4892 0 17.69-6.4039 33.779-14.231 28.636-13.93 38.152-16.665 41.144-11.824 2.4949 4.037-4.7207 11.246-31.761 31.731-14.247 10.793-26.663 20.853-27.591 22.354-0.9283 1.5019 0.4856 13.154 3.1419 25.893 4.3744 20.98 4.3489 25.565-0.2704 48.659-6.3226 31.608-25.541 72.3-42.306 89.575-21.618 22.276-45.102 21.657-56.717-1.4943-18.305-36.486-7.2857-84.841 31.449-138.01l15.782-21.663-12.041-28.073c-11.146-25.985-16.785-34.107-16.785-24.175 0 12.09-58.185 116.9-73.271 131.99-12.154 12.154-21.992 12.065-32.39-0.29246-11.507-13.675-12.531-20.48-10.349-68.754 1.0689-23.649 0.7255-41.431-0.7692-39.832-5.9141 6.3266-53.282 66.857-58.239 74.423-2.9105 4.442-13.142 44.204-22.737 88.359-20 92.04-31.773 134.79-47.753 173.39-15.258 36.861-30.419 62.219-47.948 80.202-16.995 17.434-28.077 19.506-40.089 7.4942zm21.824-50.405c11.505-15.084 23.531-43.147 46.997-109.68 25.325-71.798 36.331-106.76 39.105-124.22 1.9013-11.964 1.599-12.918-2.9143-9.196-8.6053 7.0972-48.562 73.262-65.289 108.11-18.733 39.032-30.774 78.944-33.762 111.91-3.1999 35.312 1.4085 42.013 15.862 23.063zm325.69-221.45c15.254-16.174 30.672-50.13 32.646-71.9 2.3812-26.26-3.632-24.656-21.699 5.7875-15.354 25.872-23.261 45.261-26.441 64.83-2.4463 15.057 2.1449 15.437 15.494 1.2825zm-412.58-194.19c8.4437-10.207 16.687-28.693 14.2-31.843-2.0131-2.55-14.995 8.2818-20.161 16.822-7.0275 11.617-10.912 26.881-6.8419 26.881 1.6458 0 7.4069-5.3366 12.802-11.859z"/>
   <path transform="matrix(.75009 0 0 .75009 -.0031114 0)" d="m1230.7 1254.3c-8.901-8.9011-17.485-35.625-17.485-54.436 0-34.904 15.993-89.304 43.01-146.3 22.429-47.317 33.819-65.973 73.154-119.83 18.098-24.779 34.231-49.674 35.851-55.322 3.2977-11.498 3.9324-27.704 1.0851-27.704-1.023 0-11.34 8.5754-22.928 19.057-22.24 20.117-47.374 34.705-59.795 34.705-21.261 0-35.59-20.398-35.59-50.663 0-8.6615-1.4231-15.748-3.1625-15.748-1.7393 0-3.1624 1.2576-3.1624 2.7947 0 3.5401-25.956 41.784-40.864 60.209-24.769 30.613-55.976 40.45-75.692 23.86-14.188-11.939-17.244-25.251-15.493-67.493 2.8409-68.52 28.276-120.36 63.107-128.63 6.6004-1.5669 10.368-0.19683 16.603 6.0384 6.6404 6.6404 8.0529 11.024 7.9957 24.812-0.09 21.799-7.8555 38.393-32.017 68.422-28.532 35.461-35.13 56.32-21.666 68.505 5.5173 4.9931 7.9329 5.2526 18.744 2.0135 6.8257-2.045 18.574-9.7404 26.108-17.101 14.712-14.373 61.08-72.553 77.31-97.003 16.377-24.671 43.79-33.867 68.446-22.961 14.892 6.5873 23.063 16.696 19.983 24.721-1.3573 3.537-5.2861 4.1747-16.846 2.7346-20.605-2.5667-33.956 5.1239-46.046 26.524-10.288 18.21-16.26 57.345-8.751 57.345 2.111 0 19.175-14.784 37.92-32.853 50.576-48.752 63.468-49.022 63.468-1.3296 0 13.582 0.73 24.695 1.6224 24.695 0.8923 0 17.109-12.827 36.038-28.505l34.415-28.505 5.5078-22.885c3.0292-12.587 6.7856-25.375 8.3475-28.419 6.2227-12.127 18.645-2.8864 24.446 18.184 3.0084 10.927 1.7151 21.398-9.4974 76.892-7.139 35.333-12.217 65.005-11.285 65.937 0.9324 0.93236 3.1475 0.79769 4.9224-0.29926 4.971-3.0722 39.048-51.153 64.788-91.413 19.929-31.17 23.426-38.777 25.046-54.479 2.1995-21.31 17.062-53.674 31.091-67.703 11.211-11.211 23.77-12.486 34.824-3.5348 6.4579 5.2293 7.7373 9.7988 9.5181 33.996 1.1316 15.375 3.1109 35.426 4.3986 44.558 1.9448 13.791 1.525 16.603-2.4791 16.603-7.4129 0-14.757-13.713-21.533-40.206-3.3916-13.261-6.8805-24.825-7.753-25.698-3.6476-3.6476-16.971 13.639-20.656 26.801-2.9474 10.527-3.1022 17.066-0.5973 25.228 4.2864 13.966 26.451 48.596 31.127 48.633 1.9413 0.0152 17.048-6.3763 33.571-14.203 29.583-14.014 38.559-16.571 41.493-11.824 2.4949 4.037-4.7207 11.246-31.761 31.731-14.247 10.793-26.663 20.853-27.591 22.354-0.9283 1.5019 0.4856 13.154 3.1419 25.893 4.3744 20.98 4.3489 25.565-0.2704 48.659-6.3226 31.608-25.541 72.299-42.306 89.575-21.618 22.276-45.102 21.657-56.717-1.4943-18.244-36.365-8.0042-81.948 30.939-137.72l15.987-22.897-11.888-27.589c-11.02-25.574-16.632-33.574-16.632-23.71 0 12.09-58.185 116.9-73.271 131.99-12.154 12.154-21.992 12.065-32.39-0.29246-11.507-13.675-12.531-20.48-10.349-68.754 1.0689-23.649 0.7255-41.431-0.7692-39.832-5.9041 6.3159-53.278 66.851-58.224 74.4-2.902 4.429-11.677 37.824-19.5 74.212-17.445 81.146-30.41 132.28-41.325 162.98-22.98 64.647-60.225 119.8-80.9 119.8-5.5686 0-12.306-3.0155-16.818-7.5273zm26.049-57.517c5.6804-8.5785 15.986-30.222 22.902-48.096 20.01-51.717 56.546-162.23 58.78-177.8 2.0387-14.204 2.0308-14.219-4.2276-7.9061-10.53 10.621-48.302 73.604-64.358 107.31-18.606 39.06-30.082 77.838-33.026 111.6-3.2976 37.803 2.0936 41.833 19.929 14.897zm321.66-214.98c15.362-16.771 30.551-50.281 32.492-71.681 1.0992-12.122 0.4948-18.301-1.7903-18.301-9.2529 0-42.74 63.631-46.184 87.757-2.395 16.778 1.6235 17.355 15.483 2.2243zm-412.77-193.55c8.4437-10.207 16.687-28.693 14.2-31.843-2.0131-2.55-14.995 8.2818-20.161 16.822-7.0275 11.617-10.912 26.881-6.8419 26.881 1.6458 0 7.4069-5.3366 12.802-11.859z"/>
   <path transform="matrix(.75009 0 0 .75009 -.0031114 0)" d="m1488.3 713.09c-1.9821-5.1978-4.2942-15.854-5.138-23.682-2.7156-25.191 15.388-47.868 26.3-32.945 2.2892 3.1306 4.1621 9.4357 4.1621 14.011 0 11.195-8.2804 34.512-15.695 44.196l-6.0251 7.8694z"/>
   <path transform="matrix(.75009 0 0 .75009 -.0031114 0)" d="m1696 1008c-11.497-11.497-13.771-36.323-7.3092-79.783 2.8518-19.18 17.743-94.643 33.092-167.69l27.907-132.82-30.332-1.9281c-43.396-2.7585-57.085-8.3877-57.085-23.474 0-13.338 6.5481-15.116 46.813-12.713 47.914 2.8598 46.971 3.6205 60.577-48.852 10.716-41.324 14.218-50.599 19.109-50.599 1.6176 0 7.9714 4.4167 14.12 9.8149 13.614 11.954 13.993 18.26 3.5412 58.968l-7.5107 29.252h56.592c32.662 0 56.592 1.24 56.592 2.9326 0 5.0426-50.73 22.867-83.804 29.445-17.393 3.4594-33.315 7.9072-35.382 9.8838-8.9241 8.5357-76.885 307.81-76.885 338.57 0 25.307 12.353 28.384 29.527 7.3534 25.494-31.218 87.057-143.37 98.87-180.11 12.536-38.995 31.757-63.168 53.72-67.561 7.292-1.4584 10.877-0.10164 17.025 6.4428 6.3236 6.7312 7.7432 11.407 7.5487 24.863-0.311 21.514-8.8739 40.263-29.13 63.781-17.525 20.347-32.09 46.147-32.09 56.841 0 9.4126 8.7668 20.639 16.118 20.639 18.369 0 39.621-18.732 75.345-66.411 11.077-14.784 22.218-28.57 24.756-30.634 2.5385-2.0642 6.9568-14.724 9.8187-28.134 5.8881-27.59 13.121-36.056 21.387-25.037 4.6027 6.1362 4.3009 26.404-0.7888 52.971-2.8902 15.086 3.1526 9.4428 15.912-14.861 22.213-42.31 49.414-71.271 66.968-71.303 12.54-0.0225 26.641 23.573 26.641 44.578 0 4.8725-4.5189 22.615-10.042 39.428-10.223 31.12-10.356 37.465-1.2327 58.797 1.5619 3.6518 0.3617 5.8462-3.9454 7.2132-21.129 6.706-36.006-24.323-29.628-61.794 1.9539-11.479 6.4758-27.69 10.049-36.025s5.7189-15.932 4.7691-16.882c-3.5747-3.5747-29.582 25.992-43.477 49.428-7.9402 13.392-24.581 46.372-36.979 73.288-24.052 52.216-30.192 63.327-34.999 63.327-6.5762 0-6.5236-17.107 0.1888-61.417 3.8573-25.463 5.9123-47.32 4.5668-48.573-1.3456-1.2524-3.1491-0.29632-4.0079 2.1247-0.8587 2.421-11.232 18.865-23.053 36.541-38.544 57.642-66.012 75.086-94.796 60.201-11.892-6.1493-18.945-19.955-21.16-41.414-0.9671-9.3706-2.6266-17.033-3.6878-17.027-1.0612 6e-3 -5.914 9.727-10.784 21.603-4.8701 11.876-15.851 33.355-24.402 47.732-31.411 52.81-51.674 72.442-77.814 75.389-11.174 1.2595-14.654 0.217-21.231-6.3595zm205.11-235.42c7.0014-14.754 4.6858-18.625-6.0773-10.159-9.4174 7.4077-21.69 30.592-18.73 35.382 2.4762 4.0067 18.825-12.616 24.807-25.223z"/>
   <path transform="matrix(.75009 0 0 .75009 -.0031114 0)" d="m1695.6 1007.7c-16.07-16.07-14.164-54.828 7.7995-158.55 6.9981-33.047 20.295-96.375 29.548-140.73l16.824-80.642-30.381-1.9281c-43.444-2.7572-57.134-8.3816-57.134-23.474 0-13.364 6.5232-15.118 47.196-12.69 34.323 2.0486 38.19 1.7234 43.578-3.6641 3.3864-3.3864 10.388-22.75 16.389-45.326 10.993-41.356 14.489-50.483 19.335-50.483 1.6176 0 7.9714 4.4167 14.12 9.8149 13.614 11.954 13.993 18.26 3.5412 58.968l-7.5107 29.252h56.592c31.126 0 56.592 1.2478 56.592 2.773 0 6.4488-56.503 25.634-93.908 31.886-12.514 2.0916-24.153 5.4893-25.863 7.5504-8.9064 10.732-76.3 309.83-76.3 338.63 0 20.829 6.9287 26.03 21.282 15.977 17.002-11.909 91.311-142.78 106.32-187.25 13.913-41.225 32.388-64.626 54.518-69.052 7.292-1.4584 10.877-0.10164 17.025 6.4428 6.3236 6.7312 7.7432 11.407 7.5487 24.863-0.3165 21.896-8.716 39.672-32.344 68.451-29.948 36.477-36.3 61.796-17.636 70.3 6.252 2.8486 10.051 2.5763 18.187-1.3036 17.416-8.305 29.847-20.828 61.676-62.131 27.89-36.193 31.079-41.751 35.395-61.705 5.4368-25.134 12.936-33.22 20.927-22.566 4.6027 6.1362 4.3009 26.404-0.7888 52.971-2.8902 15.086 3.1526 9.4428 15.912-14.861 22.213-42.31 49.414-71.271 66.968-71.303 12.54-0.0225 26.641 23.573 26.641 44.578 0 4.8725-4.5189 22.615-10.042 39.428-10.223 31.12-10.356 37.465-1.2327 58.797 3.0358 7.0978-7.6203 10.324-18.191 5.5075-18.328-8.3507-21.874-50.699-7.5885-90.607 4.514-12.61 6.9847-22.928 5.4904-22.928-1.4942 0-9.7828 7.9278-18.419 17.617-17.678 19.834-31.832 44.92-63.971 113.37-22.383 47.674-26.918 55.592-31.845 55.592-6.2525 0-6.1068-17.783 0.5032-61.417 3.8573-25.463 5.9123-47.32 4.5668-48.573-1.3456-1.2524-3.1491-0.29632-4.0079 2.1247-0.8587 2.421-11.232 18.865-23.053 36.541-38.544 57.642-66.012 75.086-94.796 60.201-11.554-5.9747-18.658-19.347-21.062-39.647-1.019-8.6032-2.7285-15.642-3.7989-15.642-1.0705 0-8.5559 13.875-16.634 30.834-17.385 36.495-41.518 74.209-58.094 90.785-21.284 21.284-46.283 26.799-59.873 13.209zm204.33-233.89c8.1252-15.846 6.271-20.109-4.9186-11.308-9.397 7.3917-21.692 30.588-18.743 35.36 2.5182 4.0746 16.557-10.195 23.662-24.052z"/>
   <path transform="matrix(.75009 0 0 .75009 -.0031114 0)" d="m1698 1010.5c-14.599-10.55-17.067-42.774-7.3964-96.577 5.4973-30.586 46.014-226.51 53.625-259.32 6.4652-27.864 6.1153-28.462-16.668-28.462-41.546 0-65.262-8.6562-65.262-23.821 0-13.364 6.5232-15.118 47.196-12.69 34.323 2.0486 38.19 1.7234 43.578-3.6641 3.3864-3.3864 10.388-22.75 16.389-45.326 10.993-41.356 14.489-50.483 19.335-50.483 1.6176 0 7.9714 4.4167 14.12 9.8149 13.614 11.954 13.993 18.26 3.5412 58.968l-7.5107 29.252h56.592c31.126 0 56.592 1.1947 56.592 2.6548 0 5.903-47.541 22.844-86.03 30.656-14.43 2.9289-28.578 6.5646-31.441 8.0792-5.6512 2.9898-20.893 61.623-51.543 198.28-32.411 144.51-33.83 172.57-8.0244 158.76 15.389-8.236 97.953-152.34 108.7-189.72 10.251-35.662 32.752-63.879 54.389-68.206 7.292-1.4584 10.877-0.10164 17.025 6.4428 6.3236 6.7312 7.7432 11.407 7.5487 24.863-0.3139 21.715-8.7369 39.773-31.225 66.943-30.794 37.206-37.443 63.293-18.349 71.993 6.6021 3.0081 10.208 2.3672 22.063-3.922 15.847-8.4066 27.95-21.298 63.321-67.443 21.096-27.522 24.908-34.523 29.277-53.768 5.7433-25.299 13.191-33.326 21.118-22.759 4.6296 6.172 4.2953 26.546-0.8757 53.366-2.7425 14.225 2.9359 7.8966 19.672-21.922 23.282-41.483 46.191-64.65 63.929-64.65 8.9377 0 18.807 12.423 23.339 29.379 3.5165 13.157 3.3065 17.73-1.5979 34.787-16.265 56.57-16.037 55.065-10.501 69.158 7.1946 18.316 2.6187 22.888-14.913 14.9-18.071-8.2336-21.615-50.785-7.5393-90.51 4.4683-12.61 6.9575-22.928 5.5316-22.928-1.426 0-9.9522 8.1828-18.947 18.184-12.647 14.062-24.557 34.825-52.536 91.587-19.9 40.372-37.682 74.331-39.516 75.465s-4.9494 0.44723-6.9221-1.5255c-2.6742-2.6742-1.7117-16.491 3.7826-54.301 4.0533-27.893 6.3081-51.699 5.0107-52.903-1.2974-1.2042-3.0615-0.20872-3.9203 2.2123-0.8587 2.421-11.232 18.865-23.053 36.541-38.689 57.859-65.991 75.097-95.098 60.045-11.377-5.8832-21.562-26.23-21.662-43.274-0.038-6.5225-1.1368-11.831-2.4413-11.796-1.3045 0.0345-10.59 16.756-20.634 37.159-22.126 44.946-47.544 81.546-65.058 93.684-15.914 11.029-36.935 14.062-47.007 6.7836zm201.79-236.39c7.148-13.938 7.2937-15.148 1.8247-15.148-9.0506 0-30.679 33.648-25.169 39.158 3.0674 3.0675 16.592-10.842 23.345-24.01z"/>
   <path transform="matrix(.75009 0 0 .75009 -.0031114 0)" d="m720.2 640.2c-19.019-16.004-15.193-46.522 7.1694-57.186 23.396-11.157 49.404 5.1912 49.404 31.055 0 10.253-2.0876 14.811-10.752 23.476-13.9 13.9-31.262 14.906-45.821 2.6556z"/>
   <path transform="matrix(.75009 0 0 .75009 -.0031114 0)" d="m755.74 463.55c-57.935-14.053-108.83-66.46-120.94-124.53-11.5-55.145 5.217-110.54 45.523-150.85 30.611-30.615 67.019-45.66 110.69-45.739 71.948-0.12927 136.32 49.865 155.11 120.47 5.9227 22.252 5.81 59.997-0.24825 83.257-21.768 83.573-108.58 137.18-190.13 117.39z"/>
   <path transform="matrix(.75009 0 0 .75009 -.0031114 0)" d="m1237.9 455.27c-39.757-6.7684-64.352-55.496-47.14-93.392 10.138-22.321 37.199-39.361 62.373-39.276 17.338 0.0587 41.456 14.191 51.649 30.263 21.765 34.32 13.76 68.619-22.31 95.589-7.3681 5.5092-31.011 9.1247-44.572 6.816z"/>
  </g>
 </g>
</svg>
